<svg width="50" height="50" viewBox="0 0 50 50" fill="none" xmlns="http://www.w3.org/2000/svg">
<path d="M43.75 20.8335C43.75 35.4168 25 47.9168 25 47.9168C25 47.9168 6.25 35.4168 6.25 20.8335C6.25 15.8607 8.22544 11.0916 11.7417 7.57524C15.2581 4.05894 20.0272 2.0835 25 2.0835C29.9728 2.0835 34.7419 4.05894 38.2583 7.57524C41.7746 11.0916 43.75 15.8607 43.75 20.8335Z" fill="#3784C0" stroke="#3784C0" stroke-width="2" stroke-linecap="round" stroke-linejoin="round"/>
<path d="M25 27.0835C28.4518 27.0835 31.25 24.2853 31.25 20.8335C31.25 17.3817 28.4518 14.5835 25 14.5835C21.5482 14.5835 18.75 17.3817 18.75 20.8335C18.75 24.2853 21.5482 27.0835 25 27.0835Z" fill="white" stroke="white" stroke-width="2" stroke-linecap="round" stroke-linejoin="round"/>
</svg>
